<?xml version="1.0" standalone="no"?><!-- Generator: Gravit.io --><svg xmlns="http://www.w3.org/2000/svg" xmlns:xlink="http://www.w3.org/1999/xlink" style="isolation:isolate" viewBox="0 0 50 50" width="50px" height="50px"><defs><clipPath id="_clipPath_g9qaDFl86tPhp5k3WbemKh27rcoTl9KL"><rect width="50" height="50"/></clipPath></defs><g clip-path="url(#_clipPath_g9qaDFl86tPhp5k3WbemKh27rcoTl9KL)"><g><g><path d=" M 37.498 0.01 L 31.014 0 C 23.73 0 19.023 4.83 19.023 12.305 L 19.023 17.979 L 12.503 17.979 C 11.94 17.979 11.484 18.435 11.484 18.999 L 11.484 27.219 C 11.484 27.782 11.94 28.238 12.503 28.238 L 19.023 28.238 L 19.023 48.98 C 19.023 49.544 19.479 50 20.042 50 L 28.548 50 C 29.111 50 29.567 49.543 29.567 48.98 L 29.567 28.238 L 37.19 28.238 C 37.753 28.238 38.209 27.782 38.209 27.219 L 38.212 18.999 C 38.212 18.728 38.105 18.469 37.914 18.278 C 37.723 18.086 37.463 17.979 37.192 17.979 L 29.567 17.979 L 29.567 13.169 C 29.567 10.857 30.118 9.684 33.129 9.684 L 37.497 9.682 C 38.06 9.682 38.516 9.226 38.516 8.663 L 38.516 1.03 C 38.516 0.468 38.061 0.011 37.498 0.01 Z " fill="rgb(255,255,255)"/></g></g></g></svg>