<?xml version="1.0" standalone="no"?><!-- Generator: Gravit.io --><svg xmlns="http://www.w3.org/2000/svg" xmlns:xlink="http://www.w3.org/1999/xlink" style="isolation:isolate" viewBox="0 0 50 50" width="50px" height="50px"><defs><clipPath id="_clipPath_GNYmRyOLDagm6X11XLJNHceS0uHRtNqy"><rect width="50" height="50"/></clipPath></defs><g clip-path="url(#_clipPath_GNYmRyOLDagm6X11XLJNHceS0uHRtNqy)"><g><path d=" M 49.868 14.7 C 49.751 12.043 49.321 10.217 48.706 8.634 C 48.071 6.954 47.094 5.45 45.815 4.2 C 44.564 2.93 43.05 1.944 41.39 1.319 C 39.798 0.703 37.981 0.274 35.324 0.156 C 32.648 0.029 31.798 0 25.01 0 C 18.221 0 17.372 0.029 14.705 0.147 C 12.048 0.264 10.222 0.694 8.64 1.309 C 6.959 1.944 5.455 2.92 4.205 4.2 C 2.935 5.45 1.949 6.964 1.323 8.625 C 0.708 10.217 0.278 12.034 0.161 14.69 C 0.034 17.367 0.005 18.217 0.005 25.005 C 0.005 31.793 0.034 32.643 0.151 35.31 C 0.268 37.966 0.698 39.793 1.314 41.376 C 1.949 43.055 2.935 44.56 4.205 45.81 C 5.455 47.08 6.969 48.066 8.63 48.691 C 10.222 49.307 12.038 49.736 14.695 49.853 C 17.362 49.971 18.212 50 25 50 C 31.789 50 32.638 49.971 35.305 49.853 C 37.962 49.736 39.788 49.307 41.37 48.691 C 44.731 47.392 47.387 44.735 48.687 41.376 C 49.302 39.783 49.732 37.966 49.849 35.31 C 49.966 32.643 49.995 31.793 49.995 25.005 C 49.995 18.217 49.985 17.367 49.868 14.7 Z  M 45.366 35.114 C 45.258 37.556 44.848 38.875 44.506 39.754 C 43.666 41.932 41.937 43.661 39.759 44.501 C 38.88 44.843 37.552 45.253 35.119 45.36 C 32.482 45.478 31.691 45.507 25.02 45.507 C 18.348 45.507 17.547 45.478 14.92 45.36 C 12.478 45.253 11.159 44.843 10.28 44.501 C 9.196 44.101 8.21 43.466 7.409 42.635 C 6.578 41.825 5.944 40.848 5.543 39.764 C 5.201 38.885 4.791 37.556 4.684 35.124 C 4.566 32.487 4.537 31.696 4.537 25.024 C 4.537 18.353 4.566 17.552 4.684 14.925 C 4.791 12.483 5.201 11.164 5.543 10.285 C 5.944 9.201 6.578 8.215 7.419 7.413 C 8.229 6.583 9.206 5.948 10.29 5.548 C 11.169 5.206 12.498 4.796 14.93 4.688 C 17.567 4.571 18.358 4.542 25.029 4.542 C 31.71 4.542 32.501 4.571 35.129 4.688 C 37.571 4.796 38.89 5.206 39.769 5.548 C 40.853 5.948 41.839 6.583 42.64 7.413 C 43.47 8.224 44.105 9.201 44.506 10.285 C 44.848 11.164 45.258 12.493 45.366 14.925 C 45.483 17.562 45.512 18.353 45.512 25.024 C 45.512 31.696 45.483 32.477 45.366 35.114 Z " fill="rgb(255,255,255)"/><path d=" M 25.01 12.161 C 17.919 12.161 12.165 17.914 12.165 25.005 C 12.165 32.096 17.919 37.849 25.01 37.849 C 32.101 37.849 37.854 32.096 37.854 25.005 C 37.854 17.914 32.101 12.161 25.01 12.161 Z  M 25.01 33.337 C 20.409 33.337 16.678 29.606 16.678 25.005 C 16.678 20.404 20.409 16.673 25.01 16.673 C 29.61 16.673 33.342 20.404 33.342 25.005 C 33.342 29.606 29.61 33.337 25.01 33.337 L 25.01 33.337 Z " fill="rgb(255,255,255)"/><path d=" M 41.361 11.653 C 41.361 13.309 40.018 14.651 38.362 14.651 C 36.706 14.651 35.363 13.309 35.363 11.653 C 35.363 9.996 36.706 8.654 38.362 8.654 C 40.018 8.654 41.361 9.996 41.361 11.653 L 41.361 11.653 Z " fill="rgb(255,255,255)"/></g></g></svg>