<?xml version="1.0" standalone="no"?><!-- Generator: Gravit.io --><svg xmlns="http://www.w3.org/2000/svg" xmlns:xlink="http://www.w3.org/1999/xlink" style="isolation:isolate" viewBox="0 0 50 50" width="50px" height="50px"><defs><clipPath id="_clipPath_rvgtfQWw7RrAkC2epFP3aUXUOrL8DQbV"><rect width="50" height="50"/></clipPath></defs><g clip-path="url(#_clipPath_rvgtfQWw7RrAkC2epFP3aUXUOrL8DQbV)"><g><path d=" M 6.064 1.104 C 2.397 1.104 0 3.512 0 6.676 C 0 9.77 2.326 12.247 5.923 12.247 L 5.992 12.247 C 9.731 12.247 12.057 9.77 12.057 6.676 C 11.987 3.512 9.731 1.104 6.064 1.104 Z " fill="rgb(255,255,255)"/><path d=" M 0.634 16.649 L 11.352 16.649 L 11.352 48.896 L 0.634 48.896 L 0.634 16.649 Z " fill="rgb(255,255,255)"/><path d=" M 37.661 15.892 C 31.878 15.892 28.001 21.326 28.001 21.326 L 28.001 16.649 L 17.282 16.649 L 17.282 48.896 L 28 48.896 L 28 30.888 C 28 29.924 28.07 28.962 28.354 28.272 C 29.128 26.347 30.892 24.353 33.853 24.353 C 37.731 24.353 39.283 27.31 39.283 31.645 L 39.283 48.896 L 50 48.896 L 50 30.406 C 50 20.502 44.712 15.892 37.661 15.892 L 37.661 15.892 Z " fill="rgb(255,255,255)"/></g></g></svg>